<svg width="40" height="19" viewBox="0 0 40 19" fill="none" xmlns="http://www.w3.org/2000/svg">
<path fill-rule="evenodd" clip-rule="evenodd" d="M5.78938 19H0L14.7692 1.28762C16.2007 -0.429206 18.1392 -0.429206 19.5707 1.28762L34.3396 19H28.5503C28.5503 19 21.6619 10.7388 18.6034 7.07128C18.1867 6.57145 17.6849 6.30224 17.1698 6.30224C16.6547 6.30224 16.1529 6.57145 15.7362 7.07128C12.6779 10.7388 5.78938 19 5.78938 19Z" fill="black"/>
<path fill-rule="evenodd" clip-rule="evenodd" d="M11.4497 19H5.66031L20.5764 1.20266C21.2314 0.421005 22.0203 0 22.83 0C23.6397 0 24.4286 0.421005 25.0836 1.20266L39.9999 19H34.2106L24.2272 7.08863C23.8211 6.6039 23.332 6.34281 22.83 6.34281C22.328 6.34281 21.8389 6.6039 21.4328 7.08863L11.4497 19Z" fill="url(#paint0_linear_238_1460)"/>
<path fill-rule="evenodd" clip-rule="evenodd" d="M15.7368 17H14L18.4307 11.4066C18.8601 10.8645 19.4417 10.8645 19.8711 11.4066L24.3017 17H22.565C22.565 17 20.4985 14.3912 19.5809 13.233C19.4559 13.0752 19.3054 12.9902 19.1509 12.9902C18.9963 12.9902 18.8458 13.0752 18.7208 13.233C17.8033 14.3912 15.7368 17 15.7368 17Z" fill="black"/>
<path fill-rule="evenodd" clip-rule="evenodd" d="M17.4351 17H15.6983L20.1731 11.3798C20.3696 11.1329 20.6062 11 20.8491 11C21.092 11 21.3287 11.1329 21.5252 11.3798L26 17H24.2633L21.2683 13.2385C21.1465 13.0854 20.9997 13.003 20.8491 13.003C20.6985 13.003 20.5518 13.0854 20.43 13.2385L17.4351 17Z" fill="url(#paint1_linear_238_1460)"/>
<defs>
<linearGradient id="paint0_linear_238_1460" x1="40.0002" y1="19" x2="5.66057" y2="19" gradientUnits="userSpaceOnUse">
<stop/>
<stop offset="1" stop-opacity="0"/>
</linearGradient>
<linearGradient id="paint1_linear_238_1460" x1="26.0001" y1="17" x2="15.6984" y2="17" gradientUnits="userSpaceOnUse">
<stop/>
<stop offset="1" stop-opacity="0"/>
</linearGradient>
</defs>
</svg>
