<svg width="40" height="19" viewBox="0 0 40 19" fill="none" xmlns="http://www.w3.org/2000/svg">
<path fill-rule="evenodd" clip-rule="evenodd" d="M5.78938 19H0L14.7692 1.28762C16.2007 -0.429206 18.1392 -0.429206 19.5707 1.28762L34.3396 19H28.5503C28.5503 19 21.6619 10.7388 18.6034 7.07128C18.1867 6.57145 17.6849 6.30224 17.1698 6.30224C16.6547 6.30224 16.1529 6.57145 15.7362 7.07128C12.6779 10.7388 5.78938 19 5.78938 19Z" fill="#3F5BF6"/>
<path fill-rule="evenodd" clip-rule="evenodd" d="M11.4498 19H5.6604L20.5765 1.20266C21.2315 0.421005 22.0204 0 22.8301 0C23.6398 0 24.4287 0.421005 25.0837 1.20266L40 19H34.2107L24.2273 7.08863C23.8212 6.6039 23.3321 6.34281 22.8301 6.34281C22.3281 6.34281 21.839 6.6039 21.4329 7.08863L11.4498 19Z" fill="url(#paint0_linear_155_1933)"/>
<defs>
<linearGradient id="paint0_linear_155_1933" x1="40.0003" y1="19" x2="5.66066" y2="19" gradientUnits="userSpaceOnUse">
<stop stop-color="#3C3CFF"/>
<stop offset="1" stop-opacity="0"/>
</linearGradient>
</defs>
</svg>
